<?xml version="1.0" encoding="UTF-8" standalone="no"?>
<!-- Created with Inkscape (http://www.inkscape.org/) -->

<svg
   xmlns:dc="http://purl.org/dc/elements/1.1/"
   xmlns:cc="http://creativecommons.org/ns#"
   xmlns:rdf="http://www.w3.org/1999/02/22-rdf-syntax-ns#"
   xmlns:svg="http://www.w3.org/2000/svg"
   xmlns="http://www.w3.org/2000/svg"
   xmlns:sodipodi="http://sodipodi.sourceforge.net/DTD/sodipodi-0.dtd"
   xmlns:inkscape="http://www.inkscape.org/namespaces/inkscape"
   version="1.0"
   x="0.00000000"
   y="0.00000000"
   width="600.00000"
   height="600.00000"
   id="svg2"
   sodipodi:version="0.32"
   inkscape:version="0.48.0 r9654"
   sodipodi:docname="Simple_compass_rose.svg"
   inkscape:label="napisy">
  <metadata
     id="metadata36">
    <rdf:RDF>
      <cc:Work
         rdf:about="">
        <dc:format>image/svg+xml</dc:format>
        <dc:type
           rdf:resource="http://purl.org/dc/dcmitype/StillImage" />
      </cc:Work>
    </rdf:RDF>
  </metadata>
  <sodipodi:namedview
     inkscape:window-height="724"
     inkscape:window-width="1152"
     inkscape:pageshadow="2"
     inkscape:pageopacity="0.0"
     borderopacity="1.0"
     bordercolor="#666666"
     pagecolor="#ffffff"
     id="base"
     inkscape:zoom="1.1775672"
     inkscape:cx="300.97638"
     inkscape:cy="379.76174"
     inkscape:window-x="0"
     inkscape:window-y="25"
     inkscape:current-layer="layer5"
     showgrid="false"
     inkscape:window-maximized="0" />
  <defs
     id="defs4" />
  <g
     inkscape:groupmode="layer"
     id="layer7"
     inkscape:label="p4"
     style="display:inline" />
  <g
     style="display:inline"
     id="layer3" />
  <g
     style="display:inline"
     id="layer4" />
  <g
     inkscape:groupmode="layer"
     id="layer1"
     inkscape:label="p3"
     style="display:inline" />
  <g
     inkscape:groupmode="layer"
     id="layer6"
     inkscape:label="p2"
     style="display:inline" />
  <g
     inkscape:groupmode="layer"
     id="layer2"
     inkscape:label="podstawowa"
     style="display:inline">
    <g
       transform="translate(-56.88765,-38.38015)"
       id="g11797">
      <path
         d="M 330.74501,304.6637 L 363.57811,337.4968 L 363.56214,337.4968 L 120.71013,337.4968 L 330.74501,304.6637"
         style="fill:#ffffff;fill-opacity:1;fill-rule:evenodd;stroke:#000000;stroke-width:1;stroke-linecap:square;stroke-linejoin:miter;stroke-miterlimit:4;stroke-dasharray:none;stroke-opacity:1;display:inline"
         id="path2122" />
      <path
         d="M 330.74501,371.3299 L 363.57811,338.4968 L 363.56214,338.4968 L 120.71013,338.4968 L 330.74501,371.3299"
         style="fill:#000000;fill-opacity:1;fill-rule:evenodd;stroke:#000000;stroke-width:1;stroke-linecap:square;stroke-linejoin:miter;stroke-miterlimit:4;stroke-dasharray:none;stroke-opacity:1;display:inline"
         id="path5805" />
      <path
         d="M 397.41118,371.32995 L 364.57808,338.49685 L 364.59405,338.49685 L 607.44606,338.49685 L 397.41118,371.32995"
         style="fill:#ffffff;fill-opacity:1;fill-rule:evenodd;stroke:#000000;stroke-width:1;stroke-linecap:square;stroke-linejoin:miter;stroke-miterlimit:4;stroke-dasharray:none;stroke-opacity:1;display:inline"
         id="path8724" />
      <path
         d="M 397.41118,304.66375 L 364.57808,337.49685 L 364.59405,337.49685 L 607.44606,337.49685 L 397.41118,304.66375"
         style="fill:#000000;fill-opacity:1;fill-rule:evenodd;stroke:#000000;stroke-width:1;stroke-linecap:square;stroke-linejoin:miter;stroke-miterlimit:4;stroke-dasharray:none;stroke-opacity:1;display:inline"
         id="path8726" />
      <path
         d="M 330.74499,371.32988 L 363.57809,338.49678 L 363.57809,338.51275 L 363.57809,581.36476 L 330.74499,371.32988"
         style="fill:#ffffff;fill-opacity:1;fill-rule:evenodd;stroke:#000000;stroke-width:1;stroke-linecap:square;stroke-linejoin:miter;stroke-miterlimit:4;stroke-dasharray:none;stroke-opacity:1;display:inline"
         id="path8740" />
      <path
         d="M 397.41119,371.32988 L 364.57809,338.49678 L 364.57809,338.51275 L 364.57809,581.36476 L 397.41119,371.32988"
         style="fill:#000000;fill-opacity:1;fill-rule:evenodd;stroke:#000000;stroke-width:1;stroke-linecap:square;stroke-linejoin:miter;stroke-miterlimit:4;stroke-dasharray:none;stroke-opacity:1;display:inline"
         id="path8742" />
      <path
         d="M 397.41115,304.66372 L 364.57805,337.49682 L 364.57805,337.48085 L 364.57805,94.62884 L 397.41115,304.66372"
         style="fill:#ffffff;fill-opacity:1;fill-rule:evenodd;stroke:#000000;stroke-width:1;stroke-linecap:square;stroke-linejoin:miter;stroke-miterlimit:4;stroke-dasharray:none;stroke-opacity:1;display:inline"
         id="path8746" />
      <path
         d="M 330.74495,304.66372 L 363.57805,337.49682 L 363.57805,337.48085 L 363.57805,94.62884 L 330.74495,304.66372"
         style="fill:#000000;fill-opacity:1;fill-rule:evenodd;stroke:#000000;stroke-width:1;stroke-linecap:square;stroke-linejoin:miter;stroke-miterlimit:4;stroke-dasharray:none;stroke-opacity:1;display:inline"
         id="path8748" />
    </g>
  </g>
  <g
     inkscape:groupmode="layer"
     id="layer5"
     inkscape:label="napisy"
     style="display:inline">
    <g
       id="g1461"
       inkscape:label="p4"
       style="display:inline"
       transform="translate(1.182297,-1.05875)" />
    <g
       style="display:inline"
       id="g1463"
       transform="translate(1.182297,-1.05875)" />
    <g
       style="display:inline"
       id="g1465"
       transform="translate(1.182297,-1.05875)" />
    <g
       id="g1467"
       inkscape:label="p3"
       style="display:inline"
       transform="translate(1.182297,-1.05875)" />
    <g
       id="g1469"
       inkscape:label="p2"
       style="display:inline"
       transform="translate(1.182297,-1.05875)" />
    <g
       id="g1471"
       inkscape:label="podstawowa"
       style="display:inline"
       transform="translate(1.182297,-1.05875)" />
    <path
       d="M 294.12404,12.387486 L 302.52247,12.387486 L 313.12794,32.387486 L 313.12794,12.387486 L 320.25685,12.387486 L 320.25685,41.547642 L 311.85841,41.547642 L 301.25294,21.547642 L 301.25294,41.547642 L 294.12404,41.547642 L 294.12404,12.387486"
       style="font-size:40px;font-style:normal;font-variant:normal;font-weight:bold;font-stretch:normal;text-align:start;line-height:125%;writing-mode:lr-tb;text-anchor:start;fill:black;fill-opacity:1;stroke:none;stroke-width:1px;stroke-linecap:butt;stroke-linejoin:miter;stroke-opacity:1;font-family:Bitstream Vera Sans"
       id="path1476" />
    <path
       d="M 572.23012,285.03658 L 592.52309,285.03658 L 592.52309,290.72017 L 579.74965,290.72017 L 579.74965,296.14985 L 591.76137,296.14985 L 591.76137,301.83345 L 579.74965,301.83345 L 579.74965,308.51314 L 592.95277,308.51314 L 592.95277,314.19673 L 572.23012,314.19673 L 572.23012,285.03658"
       style="font-size:40px;font-style:normal;font-variant:normal;font-weight:bold;font-stretch:normal;text-align:start;line-height:125%;writing-mode:lr-tb;text-anchor:start;fill:black;fill-opacity:1;stroke:none;stroke-width:1px;stroke-linecap:butt;stroke-linejoin:miter;stroke-opacity:1;display:inline;font-family:Bitstream Vera Sans"
       id="path1478" />
    <path
       d="M 316.7803,560.1914 L 316.7803,566.36328 C 315.1787,565.64716 313.6162,565.10679 312.09279,564.74218 C 310.56933,564.37763 309.13053,564.19533 307.77639,564.19531 C 305.97949,564.19533 304.65137,564.44273 303.79201,564.9375 C 302.93263,565.43231 302.50293,566.20054 302.50295,567.24218 C 302.50293,568.02346 302.78941,568.63543 303.36231,569.07812 C 303.94824,569.50783 305.00293,569.87892 306.52639,570.1914 L 309.7295,570.83593 C 312.97168,571.48699 315.27637,572.47658 316.64357,573.80468 C 318.01074,575.13282 318.69433,577.02084 318.69435,579.46875 C 318.69433,582.6849 317.73731,585.08073 315.82325,586.65625 C 313.9222,588.21875 311.01205,589 307.09279,589 C 305.24381,589 303.38835,588.82422 301.52639,588.47265 C 299.6644,588.12109 297.80242,587.60026 295.94045,586.91015 L 295.94045,580.5625 C 297.80242,581.55209 299.59929,582.30078 301.33107,582.80859 C 303.07586,583.30339 304.75554,583.55078 306.37013,583.55078 C 308.01075,583.55078 309.26725,583.27735 310.13966,582.73047 C 311.01205,582.1836 311.44823,581.40235 311.44825,580.38672 C 311.44823,579.47527 311.14876,578.77214 310.54981,578.27734 C 309.96387,577.78256 308.7855,577.33985 307.01466,576.94922 L 304.1045,576.30468 C 301.18784,575.6797 299.05241,574.6836 297.69825,573.3164 C 296.35711,571.94923 295.68653,570.10679 295.68653,567.78906 C 295.68653,564.88544 296.62403,562.65237 298.49904,561.08984 C 300.37404,559.52737 303.06933,558.74612 306.58497,558.74609 C 308.18652,558.74612 309.83365,558.86982 311.52639,559.11718 C 313.21907,559.35159 314.97039,559.70966 316.7803,560.1914"
       style="font-size:40px;font-style:normal;font-variant:normal;font-weight:bold;font-stretch:normal;text-align:start;line-height:125%;writing-mode:lr-tb;text-anchor:start;fill:black;fill-opacity:1;stroke:none;stroke-width:1px;stroke-linecap:butt;stroke-linejoin:miter;stroke-opacity:1;display:inline;font-family:Bitstream Vera Sans"
       id="path1482" />
    <g
       style="font-size:38.55369949px;font-style:normal;font-variant:normal;font-weight:bold;font-stretch:normal;text-align:start;line-height:125%;letter-spacing:0px;word-spacing:0px;writing-mode:lr-tb;text-anchor:start;fill:#000000;fill-opacity:1;stroke:none;display:inline;font-family:Sans;-inkscape-font-specification:Sans Bold"
       id="text3114">
      <path
         d="m 25.711349,290.2889 c -2.208819,3e-5 -3.921897,0.81578 -5.139238,2.44726 -1.217363,1.63152 -1.826039,3.92818 -1.82603,6.88997 -9e-6,2.94926 0.608667,5.23964 1.82603,6.87114 1.217341,1.63151 2.930419,2.44726 5.139238,2.44726 2.221338,0 3.94069,-0.81575 5.158064,-2.44726 1.21733,-1.6315 1.826006,-3.92188 1.826029,-6.87114 -2.3e-5,-2.96179 -0.608699,-5.25845 -1.826029,-6.88997 -1.217374,-1.63148 -2.936726,-2.44723 -5.158064,-2.44726 m 0,-5.25219 c 4.517991,3e-5 8.057097,1.29268 10.617328,3.87796 2.560177,2.58533 3.840279,6.15581 3.84031,10.71146 -3.1e-5,4.54312 -1.280133,8.10732 -3.84031,10.69262 -2.560231,2.58531 -6.099337,3.87796 -10.617328,3.87796 -4.505473,0 -8.044579,-1.29265 -10.617327,-3.87796 -2.56021,-2.5853 -3.840312,-6.1495 -3.84031,-10.69262 -2e-6,-4.55565 1.2801,-8.12613 3.84031,-10.71146 2.572748,-2.58528 6.111854,-3.87793 10.617327,-3.87796"
         style=""
         id="path3017" />
    </g>
  </g>
</svg>
